<svg width="188" height="50" viewBox="0 0 188 50" fill="none" xmlns="http://www.w3.org/2000/svg">
<path d="M167.732 41.63C165.227 41.6342 162.731 41.3166 160.307 40.685C158.225 40.1925 156.245 39.3396 154.457 38.165L157.382 31.595C158.9 32.5741 160.55 33.3318 162.282 33.845C164.059 34.4012 165.91 34.6893 167.772 34.7C171.172 34.7 172.902 33.837 172.902 32.135C172.897 31.6909 172.753 31.2595 172.491 30.901C172.229 30.5425 171.862 30.2747 171.44 30.135C169.918 29.5365 168.345 29.077 166.74 28.762C164.725 28.3507 162.74 27.8017 160.8 27.119C159.219 26.5401 157.809 25.5731 156.7 24.307C155.502 22.8395 154.893 20.9789 154.99 19.087C154.972 17.2336 155.522 15.419 156.565 13.887C157.749 12.2402 159.38 10.9676 161.265 10.22C163.705 9.25707 166.315 8.79785 168.938 8.87C170.998 8.87103 173.051 9.10587 175.058 9.57001C176.921 9.97976 178.712 10.6703 180.368 11.618L177.623 18.233C174.961 16.7086 171.96 15.8733 168.893 15.803C167.555 15.7077 166.217 15.9798 165.023 16.59C164.658 16.794 164.353 17.0908 164.14 17.4505C163.926 17.8101 163.812 18.2198 163.808 18.638C163.82 19.0641 163.966 19.4757 164.224 19.8147C164.482 20.1538 164.84 20.4032 165.248 20.528C166.75 21.1045 168.301 21.5414 169.883 21.833C171.907 22.239 173.9 22.7881 175.846 23.476C177.419 24.0598 178.826 25.0173 179.946 26.266C181.16 27.7179 181.779 29.576 181.678 31.466C181.693 33.2973 181.143 35.0888 180.103 36.596C178.906 38.2402 177.268 39.5119 175.378 40.264C172.949 41.2356 170.347 41.7005 167.732 41.63ZM52.127 41H43.892V37.059C46.678 31.433 50 24.082 50 21C50.0005 19.1191 49.4118 17.2852 48.3164 15.7562C47.221 14.2271 45.6741 13.0796 43.893 12.475V9.5H51.227L62.3 27.68L73.1 9.5H80.435L80.525 41H72.335L72.245 24.3L64.145 37.89H60.185L52.13 24.75V41H52.127ZM17.252 41H8.52197V9.5H15.857L29.757 26.285V9.5H38.487V12.354C36.6188 12.9043 34.9782 14.0431 33.8093 15.601C32.6405 17.1588 32.0059 19.0524 32 21C32 24.1 35.531 31.512 38.493 37.184V41H31.158L17.253 24.215V41H17.252ZM91.232 41H82.142L96.042 9.5H104.817L118.772 41H109.5L107.025 34.88H93.707L91.232 41ZM100.367 18.229L96.317 28.309H104.417L100.367 18.229ZM135.287 41H120.387V9.5H135.287C138.454 9.44264 141.593 10.1042 144.467 11.435C147.023 12.6288 149.179 14.5351 150.677 16.925C152.122 19.4616 152.882 22.3307 152.882 25.25C152.882 28.1693 152.122 31.0384 150.677 33.575C149.179 35.9653 147.023 37.8718 144.467 39.065C141.593 40.3962 138.454 41.0578 135.287 41ZM129.3 16.61V33.89H134.925C137.308 33.9995 139.639 33.1762 141.425 31.595C143.003 29.8586 143.877 27.5964 143.877 25.25C143.877 22.9036 143.003 20.6414 141.425 18.905C139.639 17.3238 137.308 16.5005 134.925 16.61H129.3Z" fill="white"/>
<path d="M41 25C43.2091 25 45 23.2091 45 21C45 18.7909 43.2091 17 41 17C38.7909 17 37 18.7909 37 21C37 23.2091 38.7909 25 41 25Z" fill="white"/>
</svg>
